<svg width="50" height="50" viewBox="0 0 50 50" fill="none" xmlns="http://www.w3.org/2000/svg">
<g clip-path="url(#clip0_1306_1315)">
<path d="M15.1895 23.2204C15.0448 23.031 14.8538 22.8822 14.6347 22.7884C14.4158 22.6945 14.1762 22.6587 13.9394 22.6844C13.7025 22.7102 13.4763 22.7966 13.2826 22.9353C13.0889 23.074 12.9342 23.2604 12.8336 23.4763L0.895487 47.345C0.786733 47.5625 0.735383 47.8043 0.746316 48.0472C0.757248 48.2902 0.830099 48.5263 0.957957 48.7331C1.08581 48.9401 1.26442 49.1108 1.47683 49.2293C1.68924 49.3477 1.92841 49.4099 2.17161 49.4099H18.7947C19.061 49.4161 19.3233 49.3449 19.5498 49.2049C19.7763 49.0648 19.9574 48.862 20.0709 48.6211C23.6567 41.2114 21.4836 29.945 15.1895 23.2204Z" fill="url(#paint0_linear_1306_1315)"/>
<path d="M23.9456 1.51052C20.971 6.08752 19.2375 11.3593 18.9153 16.8084C18.593 22.2576 19.6931 27.6969 22.1076 32.5926L30.1218 48.621C30.2402 48.858 30.4224 49.0573 30.6477 49.1966C30.8732 49.336 31.1329 49.4098 31.3979 49.4098H48.018C48.2612 49.4098 48.5003 49.3475 48.7128 49.2291C48.9252 49.1107 49.1038 48.9399 49.2317 48.7331C49.3595 48.5261 49.4324 48.29 49.4432 48.0471C49.4542 47.8041 49.4029 47.5624 49.2941 47.3449C49.2941 47.3449 26.9344 2.62022 26.3725 1.50157C26.2614 1.27386 26.0883 1.08208 25.8732 0.94824C25.6581 0.814389 25.4096 0.743886 25.1562 0.744821C24.9029 0.745756 24.6549 0.818091 24.4408 0.953523C24.2267 1.08896 24.055 1.282 23.9456 1.51052Z" fill="#2684FF"/>
</g>
<defs>
<linearGradient id="paint0_linear_1306_1315" x1="21.7321" y1="26.904" x2="9.13356" y2="48.7256" gradientUnits="userSpaceOnUse">
<stop stop-color="#0052CC"/>
<stop offset="0.923" stop-color="#2684FF"/>
</linearGradient>
<clipPath id="clip0_1306_1315">
<rect width="50" height="50" fill="white"/>
</clipPath>
</defs>
</svg>
