<svg width="100" height="21" viewBox="0 0 100 21" fill="none" xmlns="http://www.w3.org/2000/svg">
<path d="M18.5687 0.87771C16.3319 -0.521134 13.3861 -0.191355 10.7596 1.46479C8.14092 -0.190147 5.19394 -0.521134 2.9596 0.87771C-0.575343 3.09254 -1.00426 8.79664 1.99996 13.6177C4.21502 17.1734 7.67947 19.256 10.7638 19.2173C13.8476 19.256 17.312 17.1734 19.5271 13.6183C22.5301 8.79604 22.1036 3.09254 18.5687 0.877106V0.87771ZM3.62646 12.6012C3.00636 11.6159 2.53861 10.5421 2.23912 9.41634C1.97283 8.4395 1.87103 7.42495 1.93791 6.4145C2.07225 4.63454 2.79514 3.24656 3.97466 2.50668C5.15357 1.76739 6.71201 1.72451 8.37164 2.38406C8.62405 2.48614 8.87104 2.60029 9.11143 2.72713C8.18896 3.56969 7.38701 4.53595 6.72827 5.59851C4.90357 8.52605 4.34634 11.7846 4.98309 14.3812C4.47591 13.8319 4.02149 13.236 3.62586 12.6012H3.62646ZM19.2909 9.41634C18.9912 10.5417 18.5237 11.6152 17.9042 12.6006C17.5086 13.2368 17.0539 13.8342 16.5463 14.3847C17.1163 12.0564 16.7288 9.20491 15.3331 6.52987C15.311 6.48571 15.2798 6.44671 15.2416 6.41543C15.2035 6.38414 15.1592 6.36127 15.1116 6.34828C15.064 6.33529 15.0143 6.33248 14.9656 6.34004C14.9169 6.3476 14.8703 6.36536 14.8288 6.39215L10.4764 9.1192C10.4369 9.14393 10.4025 9.17634 10.3754 9.21438C10.3483 9.2525 10.3289 9.29554 10.3184 9.34116C10.3079 9.38679 10.3064 9.43402 10.3141 9.48018C10.3218 9.52634 10.3385 9.57054 10.3632 9.61018L11.0018 10.634C11.0265 10.6738 11.0588 10.7083 11.0969 10.7355C11.1349 10.7628 11.1779 10.7822 11.2235 10.7928C11.269 10.8033 11.3162 10.8047 11.3623 10.797C11.4084 10.7892 11.4525 10.7724 11.4921 10.7475L14.3132 8.98089C14.4042 9.25509 14.4957 9.52509 14.5638 9.80411C14.8301 10.7807 14.9319 11.7954 14.865 12.806C14.7307 14.5877 14.0071 15.9751 12.8288 16.7144C12.2206 17.0873 11.5237 17.2897 10.8108 17.3003H10.7204C10.0075 17.2899 9.31045 17.0876 8.70237 16.7144C7.52285 15.9751 6.79936 14.5877 6.66562 12.8054C6.59936 11.7954 6.70056 10.7807 6.96682 9.80411C7.57852 7.54488 8.84225 5.51719 10.5994 3.97558C11.3573 3.30797 12.2207 2.77136 13.1542 2.38769C14.8096 1.72813 16.3711 1.77162 17.5505 2.5103C18.7301 3.24959 19.4524 4.63756 19.5867 6.41813C19.6547 7.42703 19.555 8.44024 19.2915 9.41634H19.2909Z" fill="#1AD6D6"/>
<path d="M44.6175 7.7867C42.1717 7.7867 40.1958 9.70074 40.1958 12.1355C40.1958 14.5538 42.1717 16.4365 44.6175 16.4365C47.0789 16.4365 49.0548 14.5568 49.0548 12.136C49.0548 9.70199 47.0819 7.78731 44.6175 7.78731V7.7867ZM44.6175 14.1631C43.4903 14.1631 42.6325 13.2492 42.6325 12.1191C42.6325 10.989 43.4903 10.0614 44.6175 10.0614C45.7609 10.0614 46.6186 10.9915 46.6186 12.1222C46.6186 13.2516 45.7609 14.1666 44.6175 14.1666V14.1631ZM54.5681 4.44663H50.0692C50.0207 4.4458 49.9724 4.45481 49.9274 4.47311C49.8824 4.49141 49.8415 4.51863 49.8072 4.55314C49.7728 4.58764 49.7459 4.62872 49.7277 4.67394C49.7096 4.71915 49.7008 4.76755 49.7018 4.81627V15.8138C49.6982 15.8641 49.7051 15.9147 49.7219 15.9623C49.7389 16.0099 49.7654 16.0534 49.8 16.0902C49.8344 16.127 49.8762 16.1562 49.9226 16.176C49.969 16.1957 50.0189 16.2057 50.0692 16.2051H54.5681C58.1686 16.2051 60.6705 13.8042 60.6705 10.3114C60.6705 6.79736 58.1686 4.44663 54.5681 4.44663ZM54.6747 13.8822H52.2126V6.76354H54.6747C56.6675 6.76354 58.0409 8.25781 58.0409 10.3065C58.0409 12.3215 56.6675 13.8822 54.6747 13.8822ZM69.6265 8.02347H67.9343C67.8408 8.031 67.7533 8.07289 67.6885 8.14109C67.6238 8.2093 67.5865 8.29903 67.5837 8.39311V8.89623C67.1982 8.25781 66.3276 7.7879 65.244 7.7879C63.1337 7.7879 61.1578 9.44949 61.1578 12.1034C61.1578 14.7429 63.1162 16.4347 65.2271 16.4347C66.3151 16.4347 67.203 15.9654 67.5885 15.3269V15.847C67.5888 15.9403 67.6259 16.0297 67.6915 16.0958C67.7571 16.162 67.846 16.1995 67.9392 16.2003H69.6307C69.6772 16.2014 69.7235 16.193 69.7668 16.1756C69.81 16.1582 69.8492 16.1322 69.8821 16.0991C69.915 16.0661 69.9409 16.0267 69.9581 15.9834C69.9753 15.94 69.9836 15.8936 69.9825 15.847V8.39311C69.984 8.34519 69.9759 8.29746 69.9585 8.25275C69.9413 8.20804 69.9153 8.16725 69.882 8.13279C69.8488 8.09833 69.809 8.0709 69.765 8.05213C69.721 8.03335 69.6737 8.0236 69.6259 8.02347H69.6265ZM65.6909 14.1817C64.5704 14.1817 63.7295 13.3181 63.7295 12.1209C63.7295 10.9239 64.571 10.0614 65.6909 10.0614C66.8114 10.0614 67.653 10.9226 67.653 12.1198C67.653 13.3174 66.8126 14.1806 65.6909 14.1806V14.1817ZM79.121 4.44663H77.4295C77.3822 4.44518 77.3351 4.4532 77.2908 4.47022C77.2466 4.48723 77.2062 4.5129 77.172 4.54574C77.1378 4.57857 77.1104 4.61791 77.0916 4.66146C77.0726 4.705 77.0626 4.75188 77.062 4.79936V8.86301C76.6717 8.25781 75.7885 7.7879 74.6837 7.7879C72.5897 7.7879 70.6476 9.44949 70.6476 12.1034C70.6476 14.7429 72.6066 16.4347 74.7168 16.4347C75.8048 16.4347 76.6265 15.9654 77.0783 15.3269V15.847C77.0783 16.0415 77.2355 16.1991 77.4295 16.2003H79.121C79.1676 16.2015 79.214 16.1932 79.2572 16.1757C79.3004 16.1584 79.3397 16.1324 79.3726 16.0994C79.4055 16.0663 79.4314 16.0269 79.4486 15.9835C79.4659 15.9401 79.4741 15.8937 79.4729 15.847V4.80177C79.4743 4.75493 79.4663 4.70829 79.4492 4.66468C79.432 4.62107 79.4062 4.58143 79.3733 4.54819C79.3403 4.51494 79.301 4.48878 79.2576 4.47131C79.2143 4.45385 79.1678 4.44545 79.121 4.44663ZM75.1861 14.2023C74.0704 14.2023 73.2361 13.3301 73.2361 12.1198C73.2361 10.9099 74.0734 10.0378 75.1861 10.0378C76.2982 10.0378 77.1361 10.9099 77.1361 12.1198C77.1361 13.3301 76.3024 14.2023 75.1861 14.2023ZM88.6138 4.44663H86.9253C86.8779 4.44518 86.8307 4.45319 86.7864 4.47019C86.7421 4.4872 86.7017 4.51285 86.6674 4.54567C86.6331 4.57849 86.6056 4.61782 86.5866 4.66137C86.5676 4.70492 86.5574 4.75182 86.5566 4.79936V8.86301C86.171 8.25781 85.2831 7.7879 84.1789 7.7879C82.0843 7.7879 80.1427 9.44949 80.1427 12.1034C80.1427 14.7429 82.1024 16.4347 84.212 16.4347C85.3006 16.4347 86.1205 15.9654 86.5734 15.3269V15.847C86.5738 15.9405 86.6109 16.03 86.6768 16.0963C86.7427 16.1624 86.832 16.1999 86.9253 16.2003H88.6138C88.6603 16.2015 88.7066 16.1932 88.7498 16.1757C88.793 16.1584 88.8322 16.1324 88.865 16.0993C88.8978 16.0662 88.9235 16.0268 88.9407 15.9834C88.9577 15.94 88.9659 15.8936 88.9644 15.847V4.80177C88.9661 4.75499 88.9582 4.70837 88.9412 4.66477C88.9242 4.62117 88.8985 4.58151 88.8657 4.54824C88.8328 4.51497 88.7935 4.4888 88.7502 4.47132C88.7069 4.45385 88.6605 4.44544 88.6138 4.44663ZM84.6789 14.2023C83.5626 14.2023 82.7289 13.3301 82.7289 12.1198C82.7289 10.9099 83.5662 10.0378 84.6789 10.0378C85.7909 10.0378 86.6289 10.9099 86.6289 12.1198C86.6289 13.3301 85.7976 14.2023 84.6819 14.2023H84.6789ZM97.875 8.59544L95.3509 17.2748C94.8643 18.8186 93.7768 19.7427 92.0857 19.7427C91.316 19.7427 90.616 19.585 90.0678 19.2704C89.7473 19.0874 89.4821 18.9201 89.4821 18.6525C89.4821 18.4864 89.5357 18.4007 89.633 18.2449L90.1339 17.4923C90.2759 17.2821 90.3803 17.2138 90.5321 17.2138C90.6526 17.2166 90.7696 17.2572 90.866 17.3298C91.1803 17.5345 91.4732 17.7103 91.9187 17.7103C92.4392 17.7103 92.8366 17.543 93.0509 16.9215L93.2678 16.2009H92.2464C91.9946 16.2009 91.8562 16.0505 91.7937 15.8482L89.5348 8.59544C89.4509 8.30975 89.5285 8.02406 89.9464 8.02406H91.7259C91.9428 8.02406 92.0955 8.09836 92.1901 8.41062L93.8589 14.2512L95.4187 8.41062C95.4678 8.20889 95.6026 8.02406 95.8705 8.02406H97.558C97.891 8.02347 97.9919 8.25781 97.875 8.59544ZM39.5584 11.1769V15.8132C39.5592 15.8637 39.5498 15.9139 39.5308 15.9607C39.5118 16.0075 39.4836 16.05 39.448 16.0857C39.4123 16.1215 39.3698 16.1497 39.3231 16.1686C39.2763 16.1875 39.2263 16.1969 39.1759 16.1961H37.7801C37.7297 16.197 37.6796 16.1877 37.6329 16.1688C37.5861 16.1498 37.5437 16.1216 37.508 16.0859C37.4724 16.0502 37.4442 16.0076 37.4254 15.9607C37.4066 15.9139 37.3973 15.8637 37.3982 15.8132V14.5961C36.5114 15.7183 34.9705 16.425 33.2271 16.425C29.9536 16.425 27.3951 13.9558 27.3951 10.4407C27.3951 6.7877 30.1572 4.26965 33.6464 4.26965C36.2223 4.26965 38.2813 5.38039 39.1958 7.61396C39.2215 7.67294 39.2358 7.73627 39.2379 7.80059C39.2379 7.90629 39.1681 7.98602 38.9451 8.06332L37.3151 8.69269C37.2168 8.73369 37.1068 8.73564 37.0072 8.69812C36.9198 8.64642 36.8514 8.56784 36.812 8.47404C36.2271 7.35847 35.1855 6.60167 33.5831 6.60167C31.5048 6.60167 30.0157 8.22882 30.0157 10.3391C30.0157 12.3848 31.2831 14.067 33.6421 14.067C34.8831 14.067 35.8729 13.4811 36.3343 12.8366H34.8614C34.811 12.8374 34.7609 12.828 34.7143 12.809C34.6676 12.7899 34.6251 12.7617 34.5895 12.7259C34.5539 12.6902 34.5258 12.6476 34.5069 12.6007C34.488 12.5539 34.4787 12.5037 34.4795 12.4532V11.1932C34.4788 11.1427 34.4882 11.0926 34.5071 11.0458C34.526 10.999 34.5542 10.9565 34.5897 10.9208C34.6253 10.8851 34.6677 10.8569 34.7144 10.838C34.761 10.819 34.811 10.8096 34.8614 10.8103H39.1752C39.2248 10.8077 39.2742 10.8153 39.3207 10.8326C39.3671 10.8499 39.4096 10.8765 39.4454 10.9109C39.4812 10.9452 39.5096 10.9865 39.529 11.0323C39.5483 11.078 39.5581 11.1273 39.5578 11.1769H39.5584Z" fill="#1AD6D6"/>
<path d="M97.9214 6.30698V6.19463C97.9214 6.18678 97.9241 6.17893 97.9286 6.17289C97.9348 6.16788 97.942 6.1651 97.9491 6.16504H98.6616C98.6696 6.16504 98.6768 6.16806 98.6821 6.17289C98.6875 6.17893 98.6902 6.18678 98.6902 6.19463V6.30698C98.6902 6.31454 98.6875 6.32184 98.6821 6.32751C98.6795 6.33012 98.6768 6.33216 98.6732 6.33351C98.6696 6.33485 98.6661 6.33549 98.6616 6.33536H98.4018V7.04022C98.4018 7.04782 98.3982 7.05501 98.3929 7.06039C98.3875 7.06576 98.3804 7.06892 98.3723 7.06921H98.2375C98.2339 7.0692 98.2304 7.06844 98.2277 7.06699C98.2241 7.06553 98.2214 7.06342 98.2187 7.06076C98.2161 7.05813 98.2134 7.05495 98.2116 7.05143C98.2107 7.04789 98.2098 7.04409 98.2098 7.04022V6.33536H97.9491C97.9455 6.33563 97.942 6.33509 97.9384 6.33376C97.9348 6.33242 97.9312 6.33034 97.9286 6.32765C97.9259 6.32495 97.9241 6.32172 97.9223 6.31815C97.9214 6.31459 97.9205 6.31077 97.9205 6.30698H97.9214ZM99.167 6.19041L99.3616 6.6434L99.5571 6.19041C99.5598 6.18245 99.5652 6.17568 99.5723 6.17108C99.5813 6.16676 99.5902 6.16468 99.5991 6.16504H99.825C99.8286 6.16478 99.833 6.16532 99.8357 6.16661C99.8393 6.16791 99.8429 6.16993 99.8455 6.17256C99.8482 6.17518 99.85 6.17834 99.8518 6.18184C99.8527 6.18533 99.8536 6.18908 99.8536 6.19282V7.04083C99.8536 7.04451 99.8536 7.04822 99.8518 7.0517C99.8509 7.05518 99.8491 7.05835 99.8464 7.06102C99.8438 7.0637 99.8402 7.06581 99.8375 7.06722C99.8339 7.06863 99.8304 7.06931 99.8268 7.06921H99.7C99.6964 7.06942 99.692 7.06883 99.6884 7.06748C99.6848 7.06613 99.6812 7.06404 99.6786 7.06136C99.6759 7.05875 99.6741 7.05554 99.6723 7.05199C99.6714 7.04843 99.6705 7.04462 99.6705 7.04083V6.4006L99.4616 6.86567C99.458 6.87463 99.4527 6.88259 99.4455 6.88862C99.4375 6.89303 99.4286 6.89512 99.4196 6.89466H99.3161C99.3071 6.89508 99.2982 6.89298 99.2911 6.88862C99.283 6.88302 99.2777 6.87519 99.275 6.86627L99.067 6.4012V7.04143C99.067 7.04879 99.0634 7.05585 99.0589 7.06136C99.0536 7.0661 99.0464 7.06887 99.0393 7.06921H98.9098C98.9062 7.06918 98.9027 7.06847 98.9 7.06712C98.8964 7.06577 98.8938 7.06382 98.8911 7.06136C98.8884 7.05875 98.8866 7.05554 98.8848 7.05199C98.8839 7.04843 98.883 7.04462 98.8839 7.04083V6.19282C98.883 6.18908 98.8839 6.18533 98.8857 6.18184C98.8866 6.17834 98.8893 6.17518 98.892 6.17256C98.8946 6.16993 98.8973 6.16791 98.9009 6.16661C98.9045 6.16532 98.908 6.16478 98.9116 6.16504H99.1312C99.1393 6.16504 99.1491 6.16685 99.1562 6.17108C99.1616 6.17651 99.1652 6.18316 99.167 6.19041Z" fill="#1AD6D6"/>
</svg>
