<svg width="100" height="58" viewBox="0 0 100 58" fill="none" xmlns="http://www.w3.org/2000/svg">
<g clip-path="url(#clip0_1306_679)">
<path fill-rule="evenodd" clip-rule="evenodd" d="M65.4755 57.1429H51.9398V0H65.4755V57.1429ZM47.1061 28.6408C47.1061 41.648 36.5592 52.1735 23.5653 52.1735C10.5704 52.1735 0.00610352 41.6306 0.00610352 28.6408C0.00610352 15.651 10.553 5.10714 23.5469 5.10714C36.5418 5.10714 47.1061 15.6327 47.1061 28.6408V28.6408ZM30.6694 28.6408C30.6702 27.7067 30.4867 26.7815 30.1295 25.9184C29.7722 25.0552 29.2482 24.271 28.5875 23.6106C27.9267 22.9503 27.1422 22.4267 26.2789 22.07C25.4155 21.7132 24.4903 21.5303 23.5561 21.5316C22.6219 21.5303 21.6967 21.7132 20.8333 22.07C19.97 22.4267 19.1855 22.9503 18.5247 23.6106C17.864 24.271 17.34 25.0552 16.9827 25.9184C16.6255 26.7815 16.442 27.7067 16.4428 28.6408C16.4422 29.5748 16.6257 30.4998 16.9829 31.3627C17.3402 32.2257 17.8641 33.0097 18.5247 33.67C19.1853 34.3302 19.9697 34.8537 20.8329 35.2104C21.696 35.5672 22.6211 35.7502 23.5551 35.749C24.4892 35.7505 25.4145 35.5676 26.2779 35.211C27.1413 34.8544 27.9259 34.331 28.5868 33.6707C29.2476 33.0104 29.7717 32.2263 30.1291 31.3632C30.4864 30.5001 30.67 29.575 30.6694 28.6408V28.6408ZM99.8326 14.3551H90.8367L85.5551 19.6296L80.2735 14.3541H71.2755V23.4969L76.4867 28.701L71.2755 33.9061V42.9265H80.4132L85.5714 37.7745L90.7296 42.9265H99.8673V33.9061L94.6561 28.702L99.8673 23.498V14.3551H99.8316H99.8326Z" fill="#002F34"/>
</g>
<defs>
<clipPath id="clip0_1306_679">
<rect width="100" height="57.1429" fill="white"/>
</clipPath>
</defs>
</svg>
