<svg width="50" height="29" viewBox="0 0 50 29" fill="none" xmlns="http://www.w3.org/2000/svg">
<g clip-path="url(#clip0_1306_2825)">
<path d="M11.3453 15.8391C10.9614 16.607 9.8658 16.607 9.48192 15.8391L8.56383 14.003C8.4172 13.7098 8.4172 13.3646 8.56383 13.0713L9.48192 11.2351C9.8658 10.4674 10.9614 10.4674 11.3453 11.2351L12.2634 13.0713C12.41 13.3646 12.41 13.7098 12.2634 14.003L11.3453 15.8391Z" fill="#1D4AFF"/>
<path d="M11.3453 26.2527C10.9614 27.0205 9.8658 27.0205 9.48192 26.2527L8.56383 24.4165C8.4172 24.1233 8.4172 23.7781 8.56383 23.4849L9.48192 21.6487C9.8658 20.8809 10.9614 20.8809 11.3453 21.6487L12.2634 23.4849C12.41 23.7781 12.41 24.1233 12.2634 24.4165L11.3453 26.2527Z" fill="#1D4AFF"/>
<path d="M0 22.3001C0 21.3721 1.12202 20.9073 1.77824 21.5636L6.55259 26.338C7.20881 26.9942 6.74405 28.1162 5.81603 28.1162H1.04167C0.46637 28.1162 0 27.6498 0 27.0745V22.3001ZM0 17.2712C0 17.5474 0.109747 17.8124 0.305097 18.0077L10.1084 27.8111C10.3038 28.0064 10.5687 28.1162 10.845 28.1162H16.2296C17.1576 28.1162 17.6224 26.9942 16.9661 26.338L1.77824 11.15C1.12202 10.4938 0 10.9586 0 11.8866V17.2712ZM0 6.85764C0 7.1339 0.109747 7.39885 0.305097 7.5942L20.522 27.8111C20.7173 28.0064 20.9823 28.1162 21.2585 28.1162H26.6431C27.5711 28.1162 28.0359 26.9942 27.3797 26.338L1.77824 0.736513C1.12203 0.0803047 0 0.545055 0 1.47307V6.85764ZM10.4135 6.85764C10.4135 7.1339 10.5233 7.39885 10.7186 7.5942L29.4624 26.338C30.1186 26.9942 31.2406 26.5294 31.2406 25.6014V20.2168C31.2406 19.9406 31.1308 19.6756 30.9355 19.4803L12.1918 0.736502C11.5355 0.0802943 10.4135 0.545055 10.4135 1.47307V6.85764ZM22.6053 0.736513C21.9491 0.0802943 20.8271 0.545055 20.8271 1.47307V6.85764C20.8271 7.1339 20.9369 7.39885 21.1322 7.5942L29.4624 15.9244C30.1186 16.5807 31.2406 16.1159 31.2406 15.1879V9.80327C31.2406 9.52702 31.1308 9.26202 30.9355 9.06671L22.6053 0.736513Z" fill="#F9BD2B"/>
<path d="M44.2966 22.4281L34.4917 12.6231C33.8355 11.9669 32.7135 12.4317 32.7135 13.3597V27.0747C32.7135 27.65 33.1799 28.1163 33.7552 28.1163H48.9433C49.5186 28.1163 49.985 27.65 49.985 27.0747V25.8257C49.985 25.2504 49.5166 24.791 48.9461 24.7168C47.1954 24.4887 45.5578 23.6892 44.2966 22.4281ZM37.7119 24.7841C36.7922 24.7841 36.0458 24.0376 36.0458 23.1179C36.0458 22.1981 36.7922 21.4517 37.7119 21.4517C38.6317 21.4517 39.3782 22.1981 39.3782 23.1179C39.3782 24.0376 38.6317 24.7841 37.7119 24.7841Z" fill="black"/>
<path d="M0 27.0745C0 27.6498 0.46637 28.1162 1.04167 28.1162H5.81603C6.74405 28.1162 7.20881 26.9942 6.55259 26.3379L1.77824 21.5635C1.12202 20.9073 0 21.3721 0 22.3001V27.0745Z" fill="#1D4AFF"/>
<path d="M10.4135 9.3718L1.77824 0.736505C1.12203 0.0802968 0 0.545048 0 1.47306V6.85763C0 7.13389 0.109747 7.39885 0.305097 7.59419L10.4135 17.7026V9.3718Z" fill="#1D4AFF"/>
<path d="M1.77824 11.15C1.12202 10.4937 0 10.9585 0 11.8865V17.2711C0 17.5474 0.109747 17.8124 0.305097 18.0077L10.4135 28.1162V19.7854L1.77824 11.15Z" fill="#1D4AFF"/>
<path d="M20.8272 9.80327C20.8272 9.52702 20.7175 9.26202 20.5221 9.06671L12.1918 0.736502C11.5356 0.0802943 10.4136 0.545055 10.4136 1.47307V6.85763C10.4136 7.13389 10.5234 7.39885 10.7187 7.5942L20.8272 17.7026V9.80327Z" fill="#F54E00"/>
<path d="M10.4136 28.1162L16.2296 28.1161C17.1576 28.1161 17.6224 26.9942 16.9662 26.3379L10.4136 19.7854V28.1162Z" fill="#F54E00"/>
<path d="M10.4136 9.37183L10.4136 17.2714C10.4136 17.5477 10.5235 17.8126 10.7188 18.008L20.8272 28.1164V20.217C20.8272 19.9408 20.7175 19.6758 20.5221 19.4805L10.4136 9.37183Z" fill="#F54E00"/>
</g>
<defs>
<clipPath id="clip0_1306_2825">
<rect width="50" height="28.125" fill="white"/>
</clipPath>
</defs>
</svg>
