<svg width="100" height="25" viewBox="0 0 100 25" fill="none" xmlns="http://www.w3.org/2000/svg">
<path d="M98.92 10.7615C98.92 5.07756 94.9602 1.07983 89.4088 1.07983C82.3417 1.07983 77.6051 6.21436 77.6051 13.5467C77.6051 19.2685 81.6028 23.2284 87.2489 23.2284C92.3834 23.2284 96.2106 20.7464 97.7832 16.7865H92.0803C91.3224 18.0181 89.712 18.7949 87.7415 18.7949C84.7101 18.7949 82.8154 16.7865 82.6449 13.9446H98.5979C98.8063 12.8646 98.92 11.9362 98.92 10.7615ZM83.0807 10.0984C83.5922 7.48377 86.1311 5.39965 89.2004 5.39965C91.8529 5.39965 93.8613 7.3322 93.8613 10.0984H83.0807Z" fill="#2E4369"/>
<path d="M62.2773 22.7168L63.3005 17.2602C66.4266 17.8855 66.9003 16.1234 67.715 11.8794L68.1129 9.77632C69.2497 3.84604 71.5422 0.890378 78.0977 1.68613L77.0746 7.14275C73.9484 6.51751 73.399 8.88583 72.698 12.5615L72.3001 14.6645C71.1633 20.6706 68.795 23.5126 62.2773 22.7168Z" fill="#2E4369"/>
<path d="M54.6229 22.7357L58.488 1.59131H63.5847L59.7385 22.7357H54.6229Z" fill="#2E4369"/>
<path d="M25.4263 1.59131H30.3713L31.9818 16.8812L38.4615 1.59131H43.3687L45.0928 17.0328L51.3452 1.59131H56.2713L47.3096 22.7357H41.7014L39.8825 8.18472L33.687 22.7357H28.2683L25.4263 1.59131Z" fill="#2E4369"/>
<path d="M6.95339 7.19949L1.07996 12.8077H11.0648L12.1069 10.3636H7.04813L10.2122 7.19949L8.37439 4.03542H16.9572L9.03752 22.7357H12.0121L20.9739 1.59131H3.65669L6.95339 7.19949Z" fill="#00B9FF"/>
</svg>
