<svg width="100" height="20" viewBox="0 0 100 20" fill="none" xmlns="http://www.w3.org/2000/svg">
<g clip-path="url(#clip0_1306_1784)">
<path d="M66.9307 16.536C68.2177 16.536 69.5049 16.0408 70.4949 15.1498L72.2771 17.0311C70.8911 18.4173 69.0099 19.2095 67.0297 19.1105C62.7723 19.1105 59.9009 16.239 59.9009 12.3772C59.8019 8.71359 62.6733 5.74306 66.3365 5.64404C66.4355 5.64404 66.5347 5.64404 66.6337 5.64404C70.8911 5.64404 73.3663 8.91162 73.1683 13.4664H62.9703C63.2673 15.4468 65.0495 16.734 66.9307 16.536ZM69.9999 11.288C69.9009 9.50572 68.4157 8.11948 66.6337 8.2185C64.7525 8.11948 63.1683 9.40671 62.9703 11.288H69.9999Z" fill="#072F35"/>
<path d="M0 16.4372L7.82178 8.51572H0.19802V6.04028H11.3861V8.61474L3.56436 16.5362H11.4851V19.0117H0V16.4372Z" fill="#072F35"/>
<path d="M20.7921 16.5361C22.0792 16.5361 23.3663 16.041 24.3565 15.1498L26.1386 17.0311C24.7525 18.5165 22.7723 19.3086 20.7921 19.2095C16.4357 19.2095 13.6634 16.338 13.6634 12.4764C13.5644 8.81271 16.4357 5.84218 20.099 5.74316C20.198 5.74316 20.297 5.74316 20.3961 5.74316C24.6535 5.74316 27.1287 9.01074 26.8317 13.5656H16.8317C17.1287 15.447 18.9109 16.7341 20.7921 16.5361ZM23.8614 11.2882C23.7624 9.50583 22.2772 8.11959 20.4951 8.21861C18.7129 8.11959 17.1287 9.40681 16.8317 11.2882H23.8614Z" fill="#072F35"/>
<path d="M43.7623 12.4762C43.5643 8.91158 46.3367 5.84204 49.9009 5.74302C49.9999 5.74302 50.099 5.74302 50.1981 5.74302C51.8811 5.74302 53.4653 6.43614 54.4555 7.72338V0H57.2277V18.9124H54.4555V17.1301C53.3663 18.4172 51.7821 19.2094 50.0989 19.2094C46.5347 19.2094 43.5643 16.2389 43.6633 12.6743C43.7623 12.5752 43.7623 12.4762 43.7623 12.4762ZM54.6535 12.4762C54.6535 10.1988 52.7723 8.4165 50.5941 8.4165C48.3169 8.4165 46.5347 10.2978 46.5347 12.4762C46.5347 14.7536 48.4159 16.5359 50.5941 16.5359C52.8713 16.5359 54.6535 14.7536 54.6535 12.4762Z" fill="#072F35"/>
<path d="M74.8516 16.2388L77.3268 14.8526C78.0198 16.0407 79.307 16.7339 80.5942 16.7339C82.1783 16.7339 82.9704 15.9417 82.9704 15.0506C82.9704 14.1594 81.4852 13.7634 79.802 13.4663C77.6238 12.9712 75.3466 12.2781 75.3466 9.60462C75.3466 7.52525 77.3268 5.64393 80.3961 5.64393C82.4753 5.54491 84.4556 6.43606 85.6436 8.11937L83.3664 9.50561C82.6734 8.51544 81.5842 8.02035 80.4951 8.02035C79.01 8.02035 78.3169 8.71347 78.3169 9.60462C78.3169 10.4958 79.505 10.7928 81.3862 11.1889C83.5644 11.684 85.9406 12.3771 85.9406 15.0506C85.9406 16.8329 84.3565 19.2093 80.6932 19.2093C78.2179 19.4074 75.9406 18.2191 74.8516 16.2388Z" fill="#072F35"/>
<path d="M92.8713 13.1693L90.6931 15.5457V18.9124H87.9209V0H90.6931V12.3772L96.5347 5.94105H99.9011L94.8515 11.486L100 18.9124H96.9307L92.8713 13.1693Z" fill="#072F35"/>
<path d="M35.5445 5.74316C32.2771 5.74316 29.5049 7.92154 29.5049 11.3872V19.0115H32.2771V11.7832C32.0791 10.0999 33.2673 8.61467 34.9505 8.41664C35.1485 8.41664 35.3465 8.41664 35.5445 8.41664C37.6237 8.41664 38.6139 9.70386 38.6139 11.7832V19.0115H41.5841V11.3872C41.5841 7.82252 38.8119 5.74316 35.5445 5.74316Z" fill="#072F35"/>
</g>
<defs>
<clipPath id="clip0_1306_1784">
<rect width="100" height="19.2308" fill="white"/>
</clipPath>
</defs>
</svg>
